<?xml version="1.0" encoding="UTF-8"?>
<svg width="210mm" height="297mm" version="1.1" viewBox="0 0 210 297" xmlns="http://www.w3.org/2000/svg" xmlns:cc="http://creativecommons.org/ns#" xmlns:dc="http://purl.org/dc/elements/1.1/" xmlns:rdf="http://www.w3.org/1999/02/22-rdf-syntax-ns#">
 <metadata>
  <rdf:RDF>
   <cc:Work rdf:about="">
    <dc:format>image/svg+xml</dc:format>
    <dc:type rdf:resource="http://purl.org/dc/dcmitype/StillImage"/>
    <dc:title/>
   </cc:Work>
  </rdf:RDF>
 </metadata>
 <g>
  <g fill="none" stroke="#000">
   <path transform="matrix(5.0086 0 0 4.6864 -493.01 -315.03)" d="m104.18 100.97c0.0145-0.10667 0.15094-0.0331 0.1773 0.0241 0.0714 0.15495-0.0822 0.30545-0.22547 0.33052-0.25635 0.0448-0.46585-0.18579-0.48374-0.42686-0.0263-0.35376 0.2902-0.62924 0.62824-0.63696 0.45055-0.0103 0.79382 0.39481 0.79018 0.82963-5e-3 0.54718-0.49947 0.95898-1.031 0.9434-0.64376-0.0189-1.1245-0.60418-1.0966-1.2324 0.0328-0.74033 0.70892-1.2902 1.4338-1.2498 0.83689 0.04657 1.456 0.81366 1.4031 1.6352-0.0602 0.93345-0.91842 1.622-1.8366 1.5563-1.03-0.0737-1.788-1.0232-1.7095-2.038 0.0871-1.1266 1.128-1.9541 2.2393-1.8627" stroke-width=".11144"/>
   <path d="m18.254 143.58 95.413 0.62862 13.297-73.599-2.9879 10.911-117.95-0.5213z" stroke-width="2.2909px"/>
   <ellipse cx="131.99" cy="67.691" rx="5.3016" ry="5.2483" stroke-width="3.1148"/>
   <g>
    <path d="m35.474 144.22-9.8971-61.859" stroke-width="2.1822px"/>
    <path d="m98.104 144.44 8.7462-63.461" stroke-width="2.1666px"/>
    <path d="m70.612 144.61 0.46059-62.555 0.52403 1.6683" stroke-width="2.2072px"/>
    <path d="m60.927 143.75-5.7554-63.683" stroke-width="2.1666px"/>
    <path d="m82.937 144.63 6.4145-63.495" stroke-width="2.1666px"/>
    <path d="m49.613 143.73-10.195-63.588" stroke-width="2.248px"/>
   </g>
   <g>
    <path d="m6.7539 81.987 12.248 62.706 95.565 0.62993 10.326-62.813z" stroke-width="3.8784"/>
    <ellipse cx="28.438" cy="157.65" rx="11.302" ry="11.047" stroke-width="2.2033"/>
    <path transform="matrix(4.974 -.59994 .53917 4.654 -470.35 -249.57)" d="m104.18 100.97c0.0145-0.10667 0.15094-0.0331 0.1773 0.0241 0.0714 0.15495-0.0822 0.30545-0.22547 0.33052-0.25635 0.0448-0.46585-0.18579-0.48374-0.42686-0.0263-0.35376 0.2902-0.62924 0.62824-0.63696 0.45055-0.0103 0.79382 0.39481 0.79018 0.82963-5e-3 0.54718-0.49947 0.95898-1.031 0.9434-0.64376-0.0189-1.1245-0.60418-1.0966-1.2324 0.0328-0.74033 0.70892-1.2902 1.4338-1.2498 0.83689 0.04657 1.456 0.81366 1.4031 1.6352-0.0602 0.93345-0.91842 1.622-1.8366 1.5563-1.03-0.0737-1.788-1.0232-1.7095-2.038 0.0871-1.1266 1.128-1.9541 2.2393-1.8627" stroke-width=".11144"/>
    <ellipse transform="matrix(-.51203 .85897 -.84967 -.52732 0 0)" cx="80.018" cy="-168.12" rx="11.471" ry="10.886" stroke-width="2.2035"/>
   </g>
  </g>
  <ellipse cx="174.42" cy="66.236" rx="32.458" ry="33.119" fill="#fc0"/>
 </g>
</svg>
